<svg width="100" height="24" viewBox="0 0 102 22" fill="none" xmlns="http://www.w3.org/2000/svg">
<path d="M0.0545783 20H-0.945422V21H0.0545783V20ZM17.5266 20V21H18.5266V20H17.5266ZM17.5266 16.192H18.5266V15.192H17.5266V16.192ZM4.87058 16.192H3.87058V17.192H4.87058V16.192ZM4.87058 0.399999H5.87058V-0.600001H4.87058V0.399999ZM0.0545783 0.399999V-0.600001H-0.945422V0.399999H0.0545783ZM0.0545783 21H17.5266V19H0.0545783V21ZM18.5266 20V16.192H16.5266V20H18.5266ZM17.5266 15.192H4.87058V17.192H17.5266V15.192ZM5.87058 16.192V0.399999H3.87058V16.192H5.87058ZM4.87058 -0.600001H0.0545783V1.4H4.87058V-0.600001ZM-0.945422 0.399999V20H1.05458V0.399999H-0.945422ZM30.9661 21.308C35.0531 21.308 38.4366 20.2979 40.8187 18.365C43.2255 16.4122 44.5101 13.5963 44.5101 10.228H42.5101C42.5101 13.0477 41.4568 15.2718 39.5586 16.812C37.6357 18.3721 34.7472 19.308 30.9661 19.308V21.308ZM44.5101 10.228C44.5101 6.83456 43.2276 4.00433 40.8202 2.0432C38.4375 0.102106 35.053 -0.908001 30.9661 -0.908001V1.092C34.7472 1.092 37.6348 2.02789 39.5571 3.5938C41.4547 5.13967 42.5101 7.37744 42.5101 10.228H44.5101ZM30.9661 -0.908001C26.866 -0.908001 23.4809 0.10176 21.1009 2.0437C18.6963 4.00581 17.4221 6.83647 17.4221 10.228H19.4221C19.4221 7.37553 20.472 5.13819 22.3653 3.5933C24.2834 2.02824 27.1703 1.092 30.9661 1.092V-0.908001ZM17.4221 10.228C17.4221 13.5944 18.6984 16.4107 21.1025 18.3645C23.4818 20.2982 26.8659 21.308 30.9661 21.308V19.308C27.1704 19.308 24.2825 18.3718 22.3638 16.8125C20.4699 15.2733 19.4221 13.0496 19.4221 10.228H17.4221ZM30.9661 15.5C28.5595 15.5 26.9222 14.9656 25.8997 14.1093C24.9077 13.2786 24.3501 12.0228 24.3501 10.228H22.3501C22.3501 12.4652 23.0666 14.3454 24.6156 15.6427C26.1341 16.9144 28.3048 17.5 30.9661 17.5V15.5ZM24.3501 10.228C24.3501 8.41677 24.9094 7.14568 25.9034 6.30505C26.926 5.44022 28.5621 4.9 30.9661 4.9V2.9C28.3022 2.9 26.1303 3.49378 24.6119 4.77795C23.0649 6.08632 22.3501 7.97923 22.3501 10.228H24.3501ZM30.9661 4.9C33.3703 4.9 34.998 5.44025 36.0128 6.30328C36.9997 7.14253 37.5541 8.41339 37.5541 10.228H39.5541C39.5541 7.98261 38.8486 6.08947 37.3085 4.77972C35.7963 3.49374 33.6299 2.9 30.9661 2.9V4.9ZM37.5541 10.228C37.5541 12.0262 37.0014 13.2817 36.0165 14.1111C35.0018 14.9656 33.3729 15.5 30.9661 15.5V17.5C33.6274 17.5 35.7925 16.9144 37.3048 15.6409C38.8469 14.3423 39.5541 12.4618 39.5541 10.228H37.5541ZM66.9481 16.78L67.9408 16.6592L67.6376 14.1691L66.1446 16.1848L66.9481 16.78ZM67.3401 20L66.3474 20.1208L66.4545 21H67.3401V20ZM70.8681 20V21H71.8681V20H70.8681ZM70.8681 9.472H71.8681V8.472H70.8681V9.472ZM58.6601 9.472V8.472H57.6601V9.472H58.6601ZM58.6601 12.916H57.6601V13.916H58.6601V12.916ZM66.1081 12.916L67.0688 13.1938L67.4382 11.916H66.1081V12.916ZM65.6601 7.344L64.7091 7.65309L64.9877 8.51042L65.8693 8.32188L65.6601 7.344ZM70.5041 6.308L70.7133 7.28588L71.7768 7.05841L71.461 6.01763L70.5041 6.308ZM45.3401 10.228C45.3401 13.5958 46.5717 16.4092 48.8912 18.3637C51.1901 20.3008 54.4533 21.308 58.3801 21.308V19.308C54.7749 19.308 52.0181 18.3832 50.18 16.8343C48.3625 15.3028 47.3401 13.0762 47.3401 10.228H45.3401ZM58.3801 21.308C62.6767 21.308 65.8268 19.9738 67.7517 17.3752L66.1446 16.1848C64.7094 18.1222 62.2595 19.308 58.3801 19.308V21.308ZM65.9554 16.9008L66.3474 20.1208L68.3328 19.8792L67.9408 16.6592L65.9554 16.9008ZM67.3401 21H70.8681V19H67.3401V21ZM71.8681 20V9.472H69.8681V20H71.8681ZM70.8681 8.472H58.6601V10.472H70.8681V8.472ZM57.6601 9.472V12.916H59.6601V9.472H57.6601ZM58.6601 13.916H66.1081V11.916H58.6601V13.916ZM65.1475 12.6382C64.6692 14.2921 62.9562 15.5 58.9961 15.5V17.5C63.212 17.5 66.203 16.1879 67.0688 13.1938L65.1475 12.6382ZM58.9961 15.5C56.5567 15.5 54.8887 14.9705 53.8452 14.1137C52.8359 13.2849 52.2681 12.0314 52.2681 10.228H50.2681C50.2681 12.4846 51.0023 14.3671 52.576 15.6593C54.1155 16.9235 56.3115 17.5 58.9961 17.5V15.5ZM52.2681 10.228C52.2681 8.41145 52.8425 7.14245 53.8609 6.30245C54.9122 5.43532 56.5874 4.9 59.0241 4.9V2.9C56.3369 2.9 54.134 3.48467 52.5883 4.75955C51.0098 6.06154 50.2681 7.95655 50.2681 10.228H52.2681ZM59.0241 4.9C60.8218 4.9 62.1187 5.18848 63.0181 5.66544C63.8869 6.12623 64.4262 6.78268 64.7091 7.65309L66.6111 7.03491C66.166 5.66532 65.2773 4.59977 63.9551 3.89855C62.6635 3.21352 61.0065 2.9 59.0241 2.9V4.9ZM65.8693 8.32188L70.7133 7.28588L70.295 5.33011L65.451 6.36611L65.8693 8.32188ZM71.461 6.01763C70.7662 3.728 69.308 1.96704 67.1639 0.799298C65.0466 -0.353823 62.3027 -0.908001 59.0241 -0.908001V1.092C62.1015 1.092 64.4816 1.61582 66.2073 2.5557C67.9062 3.48096 69.01 4.828 69.5472 6.59837L71.461 6.01763ZM59.0241 -0.908001C54.8991 -0.908001 51.4812 0.0932131 49.0736 2.0286C46.6393 3.98539 45.3401 6.81721 45.3401 10.228H47.3401C47.3401 7.36679 48.4069 5.13061 50.3266 3.5874C52.273 2.02279 55.1971 1.092 59.0241 1.092V-0.908001ZM86.9115 21.308C90.9984 21.308 94.3819 20.2979 96.764 18.365C99.1708 16.4122 100.455 13.5963 100.455 10.228H98.4555C98.4555 13.0477 97.4021 15.2718 95.5039 16.812C93.581 18.3721 90.6925 19.308 86.9115 19.308V21.308ZM100.455 10.228C100.455 6.83456 99.1729 4.00433 96.7655 2.0432C94.3828 0.102106 90.9983 -0.908001 86.9115 -0.908001V1.092C90.6926 1.092 93.5801 2.02789 95.5024 3.5938C97.4 5.13967 98.4555 7.37744 98.4555 10.228H100.455ZM86.9115 -0.908001C82.8113 -0.908001 79.4262 0.10176 77.0462 2.0437C74.6416 4.00581 73.3675 6.83647 73.3675 10.228H75.3675C75.3675 7.37553 76.4173 5.13819 78.3107 3.5933C80.2287 2.02824 83.1156 1.092 86.9115 1.092V-0.908001ZM73.3675 10.228C73.3675 13.5944 74.6437 16.4107 77.0478 18.3645C79.4271 20.2982 82.8112 21.308 86.9115 21.308V19.308C83.1157 19.308 80.2278 18.3718 78.3091 16.8125C76.4152 15.2733 75.3675 13.0496 75.3675 10.228H73.3675ZM86.9115 15.5C84.5048 15.5 82.8675 14.9656 81.845 14.1093C80.853 13.2786 80.2955 12.0228 80.2955 10.228H78.2955C78.2955 12.4652 79.0119 14.3454 80.5609 15.6427C82.0794 16.9144 84.2501 17.5 86.9115 17.5V15.5ZM80.2955 10.228C80.2955 8.41677 80.8547 7.14568 81.8487 6.30505C82.8713 5.44022 84.5074 4.9 86.9115 4.9V2.9C84.2475 2.9 82.0756 3.49378 80.5572 4.77795C79.0102 6.08632 78.2955 7.97923 78.2955 10.228H80.2955ZM86.9115 4.9C89.3157 4.9 90.9433 5.44025 91.9581 6.30328C92.945 7.14253 93.4995 8.41339 93.4995 10.228H95.4995C95.4995 7.98261 94.7939 6.08947 93.2538 4.77972C91.7416 3.49374 89.5752 2.9 86.9115 2.9V4.9ZM93.4995 10.228C93.4995 12.0262 92.9467 13.2817 91.9618 14.1111C90.9471 14.9656 89.3182 15.5 86.9115 15.5V17.5C89.5727 17.5 91.7378 16.9144 93.2501 15.6409C94.7922 14.3423 95.4995 12.4618 95.4995 10.228H93.4995Z" fill="black"/>
</svg>
