<svg width="100" height="24" viewBox="0 0 102 22" fill="none" xmlns="http://www.w3.org/2000/svg">
<path d="M0.0545782 20H17.5266V16.192H4.87058V0.399999H0.0545782V20ZM30.9661 20.308C38.8341 20.308 43.5101 16.416 43.5101 10.228C43.5101 3.984 38.8341 0.0919993 30.9661 0.0919993C23.0701 0.0919993 18.4221 3.984 18.4221 10.228C18.4221 16.416 23.0701 20.308 30.9661 20.308ZM30.9661 16.5C25.8981 16.5 23.3501 14.26 23.3501 10.228C23.3501 6.168 25.8981 3.9 30.9661 3.9C36.0341 3.9 38.5541 6.168 38.5541 10.228C38.5541 14.26 36.0341 16.5 30.9661 16.5ZM46.3401 10.228C46.3401 16.444 50.8481 20.308 58.3801 20.308C62.4681 20.308 65.2681 19.048 66.9481 16.78L67.3401 20H70.8681V9.472H58.6601V12.916H66.1081C65.4361 15.24 63.0841 16.5 58.9961 16.5C53.8721 16.5 51.2681 14.288 51.2681 10.228C51.2681 6.14 53.9001 3.9 59.0241 3.9C62.8041 3.9 64.9321 5.104 65.6601 7.344L70.5041 6.308C69.2721 2.248 65.3801 0.0919993 59.0241 0.0919993C51.0721 0.0919993 46.3401 3.956 46.3401 10.228ZM86.9115 20.308C94.7795 20.308 99.4555 16.416 99.4555 10.228C99.4555 3.984 94.7795 0.0919993 86.9115 0.0919993C79.0155 0.0919993 74.3675 3.984 74.3675 10.228C74.3675 16.416 79.0155 20.308 86.9115 20.308ZM86.9115 16.5C81.8435 16.5 79.2955 14.26 79.2955 10.228C79.2955 6.168 81.8435 3.9 86.9115 3.9C91.9795 3.9 94.4995 6.168 94.4995 10.228C94.4995 14.26 91.9795 16.5 86.9115 16.5Z" fill="black"/>
</svg>
